<?xml version="1.0" standalone="no"?>
<!DOCTYPE svg PUBLIC "-//W3C//DTD SVG 20010904//EN"
 "http://www.w3.org/TR/2001/REC-SVG-20010904/DTD/svg10.dtd">
<svg version="1.0" xmlns="http://www.w3.org/2000/svg"
 width="1280.000000pt" height="852.000000pt" viewBox="0 0 1280.000000 852.000000"
 preserveAspectRatio="xMidYMid meet">
<metadata>
Created by potrace 1.15, written by Peter Selinger 2001-2017
</metadata>
<g transform="translate(0.000000,852.000000) scale(0.100000,-0.100000)"
fill="#000000" stroke="none">
<path d="M7145 8509 c-132 -13 -315 -46 -441 -79 -213 -55 -396 -134 -847
-363 l-278 -142 -107 -3 c-77 -3 -165 4 -312 23 -186 25 -235 28 -525 28 -436
1 -662 -20 -1280 -119 -279 -44 -464 -87 -569 -131 -229 -96 -695 -349 -886
-482 -474 -330 -660 -533 -1125 -1231 -214 -321 -296 -484 -312 -623 -7 -55
-35 -98 -188 -282 -155 -187 -211 -278 -254 -419 -26 -84 -26 -113 -2 -150 58
-88 157 -74 361 51 95 57 267 147 330 171 160 62 435 83 795 63 679 -39 837
-25 1145 101 237 98 283 111 385 112 117 1 174 -18 415 -142 487 -250 576
-293 720 -350 159 -63 344 -118 485 -146 285 -56 482 -44 940 58 110 24 234
49 275 56 81 13 147 38 167 62 11 13 4 18 -55 33 -114 30 -294 98 -617 230
-473 194 -566 244 -682 368 -61 66 -120 153 -110 163 12 12 174 21 257 13 93
-9 540 -83 873 -145 582 -108 1163 -305 1707 -578 303 -152 867 -531 1165
-783 188 -159 415 -376 589 -562 217 -232 260 -284 462 -553 89 -119 195 -258
235 -310 142 -181 408 -552 435 -607 39 -79 37 -150 -9 -311 -48 -169 -86
-368 -99 -527 -25 -292 47 -694 167 -932 19 -39 42 -71 50 -71 18 0 56 67 86
150 17 47 49 98 114 182 151 195 220 337 232 481 3 37 8 67 10 67 2 0 30 -11
63 -25 222 -93 537 -138 1055 -150 304 -7 755 7 803 25 17 6 32 15 32 20 0 4
-26 24 -57 45 -97 64 -203 147 -323 255 -560 500 -692 601 -955 730 -126 62
-248 107 -505 185 -47 14 -106 39 -132 55 -86 54 -97 82 -188 490 -91 410
-249 982 -365 1318 -331 965 -810 1788 -1380 2371 -207 212 -366 351 -797 695
-139 111 -150 123 -218 226 -92 141 -125 217 -141 315 -15 102 0 197 46 294
58 121 118 163 392 275 210 85 319 154 380 239 l33 45 -38 25 c-140 92 -316
147 -587 183 -142 19 -680 28 -820 13z"/>
</g>
</svg>
